<svg xmlns="http://www.w3.org/2000/svg" width="200" height="152">
  <path fill="#161214" d="M97.86 40.565c.046.03.119.076.19.125 1.28.871 2.69 1.1 4.19.83 1.144-.205 2.283-.428 3.455-.318.174.016.355-.018.53-.045.79-.13 1.579-.268 2.37-.397.193-.032.392-.072.519.151.389.677.841 1.325 1.159 2.034.408.908.95 1.71 1.596 2.451a12.68 12.68 0 0 0 1.622 1.544c.885.713 1.713 1.498 2.56 2.259 1.097.986 2.33 1.771 3.621 2.472.816.442 1.61.928 2.431 1.361.755.399 1.512.81 2.307 1.117 1.049.405 2.133.714 3.203 1.06.713.232 1.406.473 1.982 1.008.36.334.826.567 1.275.785 1.138.556 2.355.829 3.618.896.418.023.805.101 1.154.363.18.135.418.196.63.288.113.05.254.068.337.147.272.256.597.356.953.436.711.158 1.836-.198 2.277-.78.343-.454.695-.906.998-1.388.408-.648.869-1.27 1.089-2.021.16-.547.297-1.107.507-1.635.49-1.228 1.062-2.425 1.363-3.722.011-.052.042-.1.062-.149.308-.777.596-1.563.928-2.33.282-.653.612-1.285.926-1.923.038-.078.105-.144.166-.21.65-.721 1.046-1.576 1.244-2.515.21-.996.364-2.003.55-3.003.244-1.31.252-2.623.091-3.941-.05-.409-.11-.816-.142-1.225-.046-.624-.031-1.254-.116-1.871a11.768 11.768 0 0 0-.41-1.872c-.18-.586-.313-1.162-.334-1.782-.052-1.538-.047-3.069.091-4.606.07-.77-.05-1.581-.23-2.338-.141-.592-.484-1.144-.783-1.687-.317-.576-.857-.951-1.353-1.36-.404-.332-.606-.711-.448-1.267.139-.486.14-1.01-.074-1.479-.196-.43-.22-.86-.19-1.312.016-.213.01-.43.036-.642.068-.563-.142-1.027-.529-1.405-.277-.272-.432-.6-.59-.944a17.145 17.145 0 0 0-.774-1.527c-.255-.44-.444-.858-.413-1.403.057-1.006-.356-1.887-.942-2.678-.127-.173-.353-.296-.558-.382-.41-.171-.842-.285-1.252-.45-.577-.233-1.185-.236-1.787-.272-.17-.01-.348.066-.52.11-.776.193-1.55.4-2.328.582-.553.13-1.123.198-1.67.349-.581.159-1.15.369-1.716.583-1.101.42-2.209.828-3.29 1.299-1.193.52-2.358 1.1-3.53 1.667-.37.179-.74.368-1.076.6-.63.433-1.23.91-1.851 1.354-.523.372-1.04.759-1.595 1.077-.929.535-1.906.982-2.728 1.69-.526.454-1.072.882-1.605 1.326-.15.126-.282.274-.43.403-.145.126-.286.27-.454.355-.616.312-1.11.763-1.562 1.277-.443.502-.921.973-1.387 1.454-.061.063-.154.092-.221.15-.15.127-.333.238-.429.4-.302.508-.8.754-1.285 1.013-.136.073-.337.049-.505.031-.387-.04-.776-.167-1.158-.145-1.159.064-2.308-.02-3.462-.08-1.033-.054-2.071.02-3.107.06-.642.023-1.29.04-1.92.142-.575.094-1.13.3-1.768.476 0-.176-.008-.346.002-.514.025-.41-.094-.76-.337-1.1a14.707 14.707 0 0 0-4.293-4.037c-1.222-.757-2.536-1.314-3.87-1.829-.233-.089-.477-.147-.714-.226-.437-.146-.88-.283-1.31-.449-1.43-.553-2.84-1.17-4.29-1.662-1.155-.393-2.277-.828-3.32-1.464-.182-.111-.378-.204-.57-.298-.928-.451-1.887-.85-2.778-1.365a11.282 11.282 0 0 0-2.401-1.029c-1.114-.335-2.2-.746-3.15-1.443-.64-.47-1.36-.79-2.097-1.054-1.158-.416-2.335-.773-3.5-1.167-1.127-.38-2.16-.117-2.996.634-.513.462-.994 1.034-1.24 1.727-.16.452-.278.921-.467 1.36-.31.713-.424 1.468-.568 2.221-.148.775-.371 1.527-.777 2.21-.274.459-.584.896-.843 1.362-.408.731-.787 1.48-1.18 2.218-.394.74-.824 1.464-1.176 2.224-.348.757-.82 1.472-.9 2.337a1.772 1.772 0 0 1-.123.52c-.258.607-.327 1.238-.296 1.889.04.803.065 1.609.11 2.412.02.358.123.716.097 1.067-.092 1.247.16 2.454.405 3.657.18.87.458 1.72.669 2.585.234.97.473 1.938.648 2.918.16.893.267 1.8.345 2.703.09 1.05.121 2.104.188 3.156.046.748.12 1.495.156 2.244.015.3-.049.603-.063.904-.027.615.15 1.2.245 1.798.141.88.237 1.758.562 2.6.286.749.492 1.526.736 2.29.104.324.182.658.323.965.26.567.558 1.115.837 1.672.2.397.417.786.584 1.195.214.528.576.84 1.131.955.244.05.483.134.716.226.66.26 1.35.337 2.047.36 1.284.042 2.516-.213 3.72-.643.3-.107.626-.187.94-.19a4.246 4.246 0 0 0 1.711-.383c.342-.153.667-.365 1.024-.45.935-.224 1.88-.412 2.828-.577.913-.16 1.84-.245 2.75-.416.734-.14 1.454-.354 2.179-.544.568-.15 1.139-.296 1.699-.473.678-.216 1.347-.457 2.017-.698.969-.348 1.857-.9 2.886-1.104 1.204-.237 2.28-.808 3.36-1.362 1.11-.568 2.226-1.13 3.006-2.158.031-.04.086-.064.126-.098.74-.642 1.483-1.283 2.218-1.93.722-.638 1.213-1.505 2.02-2.062.056-.037.087-.112.126-.173l1.34-2.132"/>
  <path fill="#161214" d="M145.092 39.207c-.012.384-.16.764-.254 1.144-.13.52-.259 1.04-.406 1.556-.178.616-.346 1.234-.763 1.753-.904 1.126-1.41 2.473-2.037 3.751-.043.628-.436 1.121-.634 1.686-.219.62-.299 1.289-.497 1.918a39.9 39.9 0 0 1-.854 2.37 70.97 70.97 0 0 1-.978 2.376c-.082.193-.227.36-.381.596-.5-.329-1.148-.275-1.565-.767-.066-.078-.245-.14-.33-.106-.32.125-.518-.06-.778-.189-.458-.23-.957-.379-1.447-.537-.559-.182-1.133-.32-1.687-.515-.17-.06-.318-.232-.436-.384-.554-.716-1.243-1.255-2.006-1.74-.598-.379-1.115-.887-1.662-1.347-.809-.68-1.745-1.107-2.756-1.37-.883-.23-1.769-.445-2.57-.91-.832-.48-1.605-1.04-2.263-1.78.285.127.576.246.857.386.594.296 1.198.544 1.875.578.13.006.27.086.383.165.364.256.714.531 1.074.793.273.2.58.264.915.21.352-.06.508-.33.295-.61-.141-.184-.383-.295-.59-.425-.052-.033-.142-.025-.21-.01-.747.158-1.24-.28-1.642-.784-.528-.662-1.253-.943-2.006-1.154-.722-.202-1.453-.36-2.12-.72-.108-.059-.235-.085-.355-.114-.667-.16-1.297-.41-1.852-.814-.21-.152-.436-.349-.539-.578-.411-.924-1.123-1.612-1.801-2.312a9.333 9.333 0 0 1-1.2-1.494c-.296-.466-.598-.928-.893-1.394-.027-.043-.03-.1-.056-.2.135 0 .251-.016.362.003a226.499 226.499 0 0 1 4.635.812c.172.033.338.1.507.145 1.775.477 3.546.967 5.326 1.416.425.107.885.075 1.33.107.142.01.296-.017.424.028.993.353 2.029.43 3.065.43.944.002 1.883.212 2.829.072.228-.034.457-.075.678-.139.252-.07.386-.26.384-.519-.002-.257-.135-.451-.385-.521a1.994 1.994 0 0 0-.629-.1c-.524.027-1.018-.053-1.527-.193-.544-.15-1.124-.193-1.691-.228-1.142-.071-2.288-.084-3.428-.166a1.94 1.94 0 0 1-.943-.329c-.642-.46-1.377-.652-2.11-.86-.651-.184-1.313-.337-1.977-.602.203-.052.419-.076.606-.162.307-.14.597-.32.892-.488.943-.54 1.939-.821 3.015-.503 1.263.375 2.566.443 3.864.55.443.037.839-.164 1.11-.544.244-.345.222-.603-.078-.904-.111-.112-.24-.206-.318-.406.447.035.893.06 1.337.108 1.225.129 2.46.206 3.67.414 1.511.26 3.03.153 4.543.233.79.043 1.566-.063 2.284-.454.162-.087.375-.083.564-.118.26-.048.54-.053.781-.151.38-.155.399-.597.034-.796a1.76 1.76 0 0 0-.758-.222c-.802-.017-1.606.014-2.41.027-.388.005-.778.006-1.167.012-.464.007-.928.037-1.391.02-.89-.032-1.784-.156-2.67-.116-.848.039-1.615-.116-2.355-.502a1.047 1.047 0 0 0-.408-.114c-.79-.053-1.534-.252-2.27-.56-.516-.216-1.094-.3-1.652-.399-.772-.138-1.548-.28-2.33-.337-.599-.043-1.21.013-1.81.085-.553.065-1.082.1-1.645.005-.715-.123-1.454-.138-2.183-.14-.615-.003-1.199-.077-1.781-.29-.465-.169-.97-.232-1.448-.37-.423-.123-.837-.282-1.252-.428-.438-.156-.871-.317-1.308-.472-.167-.06-.351-.086-.505-.17-.506-.27-1.017-.306-1.548-.087-.064.026-.137.032-.276.063l-.103-.385c.367-.291.664-.532.968-.765a.75.75 0 0 1 .241-.114 30.853 30.853 0 0 1 3.278-.783c1.49-.277 2.974-.58 4.429-1.028.848-.262 1.742-.367 2.61-.568 1.284-.298 2.598-.457 3.837-.957 1.243-.5 2.554-.565 3.891-.594 1.363-.028 2.752.04 4.094-.366.352-.107.741-.085 1.109-.152.242-.044.481-.122.709-.217.458-.193.906-.409 1.36-.612.267-.121.459-.307.409-.62-.048-.295-.259-.462-.55-.505-.246-.037-.517-.126-.739-.062-.58.168-1.134-.005-1.7-.023-.351-.01-.708-.034-1.055.006-.886.105-1.765.255-2.65.362-.281.033-.571-.021-.857-.02-1.248.01-2.496.042-3.744.028-.618-.007-1.235-.096-1.88-.15l.03-.525a3.7 3.7 0 0 1 1.674-.286c.512.026.99-.047 1.467-.227.245-.09.517-.151.777-.154a5.103 5.103 0 0 0 1.981-.42 3.207 3.207 0 0 1 1.836-.213c1.13.19 2.267.17 3.403.19.428.008.86.04 1.282-.003.44-.043.88-.135 1.305-.258.402-.117.476-.55.657-.862.049-.085-.085-.337-.199-.446a1.558 1.558 0 0 0-1.175-.437c-1.034.045-2.066.126-3.1.186-.764.044-1.529.117-2.293.11a10.17 10.17 0 0 0-2.02.194c-1.094.21-2.183.223-3.281-.106-1.12-.337-2.267-.175-3.391.074-1.253.278-2.504.568-3.75.875-1.441.355-2.883.752-4.14 1.559-.997.64-2.05 1.149-3.105 1.667-.462.227-.946.412-1.456.633-.13-.48-.273-.93-.274-1.416 0-.206.051-.345.226-.442.472-.264.724-.704 1.01-1.146.26-.404.667-.728 1.052-1.034.627-.5 1.303-.936 1.929-1.436.359-.287.652-.655.99-.97.234-.216.483-.42.746-.6.645-.446 1.302-.873 1.955-1.307.074-.05.142-.115.223-.148.825-.338 1.339-1.048 1.958-1.634.293-.278.616-.532.95-.76.277-.191.59-.329.888-.488 1.18-.63 2.352-1.273 3.54-1.886 1.11-.573 2.227-1.131 3.355-1.665a7.94 7.94 0 0 1 2.106-.68c.858-.142 1.698-.397 2.545-.602 1.125-.272 2.243-.585 3.38-.792.543-.1 1.114.109 1.56.445.358.27.554.69.59 1.167.044.604.055 1.22.322 1.784.168.354.36.697.55 1.04.444.803.623 1.643.564 2.573-.045.706.095 1.423.148 2.134.036.518.078 1.03.3 1.513.373.81.68 1.661 1.517 2.144.081.047.141.162.172.257.322.986.654 1.974.7 3.021.023.535.035 1.077-.028 1.607a12.347 12.347 0 0 0-.016 2.618c.021.212.012.43-.01.644-.086.819.06 1.607.325 2.373.36 1.04.541 2.1.554 3.202.007.548.197 1.093.211 1.643.03 1.215.022 2.432-.015 3.647m-36.282-2.908c-.109.511-.522.837-.81 1.365-.24-.406-.411-.746-.629-1.053a3.055 3.055 0 0 0-.555-.558c-.117-.097-.28-.14-.43-.21.008-.093.004-.166.022-.23.173-.645.015-.97-.605-1.213-.592-.232-1.197-.195-1.784-.012-.401.124-.776.172-1.199.102-.696-.116-1.356-.033-1.814.627-.117.169-.34.259-.484.413-.338.36-.28.877.127 1.147.177.116.391.175.57.288.135.084.24.214.421.382-.378.09-.657.14-.924.227a2.4 2.4 0 0 0-.627.292c-.455.319-.477.854-.081 1.239.237.232.514.382.844.435.164.028.327.071.491.201-.075.025-.15.074-.224.07a3.623 3.623 0 0 1-.584-.068c-.842-.177-.89-.252-1.023-1.1-.207-1.323-.49-2.636-.64-3.965-.1-.897-.064-1.817.386-2.66.107-.198.153-.435.194-.66.182-1.035.225-2.076.126-3.123-.024-.249-.037-.505-.106-.742-.266-.93-.258-1.872-.181-2.821.024-.302.06-.6.097-.951.537 0 1.017.019 1.497-.005.604-.032 1.208-.098 1.812-.149.868-.072 1.718-.33 2.601-.222.211.025.43.01.643-.006.23-.017.469-.109.688-.071.435.074.862.213 1.257.317.168.52.33 1.006.482 1.494.043.136.066.28.078.42.08.89.175 1.778.224 2.668.02.388-.002.796-.1 1.17-.183.712-.099 1.416-.055 2.126.035.588.042 1.177.091 1.762.036.425.095.85.187 1.265.134.606.144 1.207.017 1.809m-11.955-5.823c-.962-.063-1.9.28-2.88-.06.106-.131.196-.259.302-.372.2-.211.21-.45.088-.691-.24-.477-.56-.855-1.133-.962a26.653 26.653 0 0 1-1.772-.405c-.776-.2-1.544-.436-2.321-.63a30.158 30.158 0 0 0-1.984-.434c-1.095-.196-2.115-.632-3.162-.976-.792-.26-1.552-.622-2.35-.862-.662-.199-1.357-.294-2.042-.414-.188-.034-.392-.011-.585.01-.521.058-.796.467-.626.961.16.467.503.785.969.922.615.182 1.238.332 1.865.47.959.211 1.927.376 2.882.607.726.175 1.436.42 2.151.637.138.042.268.102.405.14 1.32.375 2.648.72 3.956 1.13.496.156.947.46 1.419.696l-.027.137c-.781.098-1.562.204-2.345.29-.564.062-1.132.124-1.7.137-.35.008-.702-.076-1.052-.122-.652-.086-1.31-.138-1.954-.266-.96-.19-1.908-.437-2.863-.652-.296-.066-.6-.097-.896-.163a20.502 20.502 0 0 1-1.138-.284c-.772-.216-1.535-.47-2.316-.654a16.1 16.1 0 0 1-1.722-.528c-.87-.308-1.791-.465-2.692-.683-.414-.1-.833-.186-1.247-.287-1.202-.29-2.415-.49-3.655-.451-.409.014-.82.062-1.222.142-.2.04-.396.162-.564.287-.292.22-.26.627.071.794.383.193.797.357 1.232.29 1.552-.237 3.055.107 4.568.34.81.126 1.628.214 2.429.385.498.106.989.298 1.453.517.775.364 1.52.793 2.29 1.171.857.423 1.728.82 2.592 1.229.045.022.079.066.205.176-.283.022-.483.05-.684.051-.964.01-1.93.04-2.892.003-.584-.021-1.164-.152-1.746-.228-1.2-.155-2.387-.4-3.608-.371-.758.019-1.518-.018-2.276-.037-.425-.01-.848-.045-1.27-.097a1.45 1.45 0 0 0-.53.039.465.465 0 0 0-.364.414c-.072.496.124.875.479 1.187.187.165.408.29.598.452.297.254.618.495.864.794.629.766 1.395 1.256 2.388 1.392.848.116 1.695.251 2.54.4 1.03.18 2.049.152 3.077-.04.43-.08.887-.053 1.33-.036.978.038 1.958-.048 2.94.071.87.106 1.693-.21 2.495-.515.433-.166.824-.233 1.286-.043.564.231 1.179.258 1.792.202.198-.018.4.007.601.012l.019.113c-.204.124-.406.251-.612.37-.741.424-1.475.863-2.23 1.262-.503.266-1.037.474-1.557.708-.226.103-.45.212-.676.314-.097.042-.197.092-.3.108a42.803 42.803 0 0 1-3.929.439c-1.013.07-2.016.279-3.025.414-.565.076-1.134.173-1.702.175-1.188.003-2.342.255-3.511.408-.446.059-.749.337-1.006.657-.288.358-.089 1.027.365 1.3.45.271.945.338 1.45.248.753-.135 1.501-.298 2.25-.452 1.414-.293 2.836-.526 4.28-.625.394-.027.811-.086 1.148-.365.084-.07.225-.087.343-.099 1.012-.093 2.026-.16 3.035-.276.475-.055.94-.198 1.408-.306a418.51 418.51 0 0 0 2.499-.584c.173-.041.365-.065.503-.16.181-.127.42-.303.449-.487.066-.448.383-.637.7-.816.542-.307 1.116-.557 1.667-.852.409-.218.825-.434 1.194-.712.495-.376 1.057-.592 1.628-.797.636-.226 1.272-.455 1.915-.662.568-.182 1.15-.24 1.78-.079v.634c-.66.045-1.01.604-1.505.935-.488.328-.939.71-1.417 1.05-.64.452-1.289.892-1.937 1.331-1.326.897-2.369 2.099-3.449 3.252-.865.923-1.811 1.718-2.925 2.316a4.301 4.301 0 0 0-.49.32c-.595.432-1.304.534-1.987.732-.984.285-1.984.442-3 .525-.764.062-1.534.075-2.297.166-.47.057-.934.2-1.392.339-.66.2-1.315.421-1.964.655-.213.076-.49.17-.586.341-.214.383-.57.374-.9.46-.177.047-.42-.041-.47.243-.038.216.131.46.399.577.284.127.569.083.825-.061.166-.094.296-.092.445.005.48.318.989.237 1.501.109.12-.03.243-.108.358-.095a.424.424 0 0 1 .277.188c.036.065.006.222-.053.282-.25.251-.51.495-.788.714a1.082 1.082 0 0 1-.48.222c-1.221.185-2.313.715-3.41 1.238-.613.292-1.223.597-1.856.838a8.082 8.082 0 0 1-1.595.44c-.803.129-1.532.471-2.304.68-.635.174-1.286.346-1.936.382-.486.027-.986-.16-1.217-.699-.33-.77-.7-1.524-.988-2.31-.446-1.222-.782-2.488-1.268-3.694-.45-1.12-.406-2.26-.424-3.42a6.638 6.638 0 0 1 .205-1.796c.035-.133.02-.287-.005-.426-.087-.494-.158-.992-.29-1.474-.287-1.036-.164-2.052.072-3.07.1-.436.195-.873.285-1.31.093-.463-.063-.9-.23-1.306-.367-.886-.258-1.786-.16-2.688.078-.728.195-1.45.28-2.177.064-.529-.088-1.03-.264-1.517a8.204 8.204 0 0 0-1.595-2.65c-.245-.277-.355-.526-.214-.91.177-.484.162-1.023.261-1.52.198-.984.155-2.045.768-2.926.098-.14.16-.33.173-.504.045-.557.312-1.012.601-1.465.456-.714.664-1.466.265-2.278-.15-.306-.113-.573.046-.864.575-1.046 1.152-2.092 1.69-3.157.191-.377.288-.804.405-1.214.108-.378.176-.768.282-1.147.037-.13.126-.251.208-.364.21-.288.432-.566.643-.853.19-.258.377-.52.554-.787.238-.356.48-.711.695-1.08.264-.452.415-.507.902-.351.594.189 1.197.35 1.798.518.85.236 1.663.56 2.375 1.085 1.1.812 2.36 1.252 3.64 1.653 1.286.404 2.486.969 3.57 1.789.743.562 1.555 1.034 2.448 1.316 1.293.409 2.563.863 3.806 1.415 1.19.528 2.438.918 3.644 1.412 1.502.616 2.991 1.266 4.476 1.926.265.119.49.346.713.544.412.37.828.739 1.209 1.14.479.504.938 1.028 1.374 1.57.135.169.18.415.246.633.086.29.164.584.222.88.12.615.573 1.065.796 1.63.047.119.188.206.296.294.161.133.281.275.198.543l-.307-.177c-.402-.226-.804-.456-1.209-.68-.454-.248-.935-.456-1.36-.746-1.027-.7-2.176-1.06-3.375-1.291a16.599 16.599 0 0 0-2.864-.298c-.805-.016-1.608-.254-2.407-.418a13.972 13.972 0 0 1-2.443-.717c-.692-.28-1.405-.51-2.093-.8-.816-.344-1.305-.043-1.268.843.01.243.094.495.194.72.338.758.852 1.373 1.598 1.749.62.311 1.265.57 1.899.852.718.321 1.422.673 2.156.953.882.338 1.793.603 2.684.921.52.186 1.033.395 1.531.63.854.401 1.669.876 2.587 1.145.525.153 1.014.436 1.515.67.5.233 1.003.46 1.49.72.342.184.696.376.974.638.423.399.854.755 1.474.924l-.065.687m50.91 5.04c-.051-.41-.112-.817-.143-1.227-.047-.623-.033-1.252-.118-1.87a11.738 11.738 0 0 0-.408-1.872c-.182-.587-.314-1.163-.335-1.783-.052-1.538-.046-3.067.09-4.605.07-.77-.048-1.581-.23-2.338-.14-.592-.482-1.144-.782-1.688-.316-.575-.857-.95-1.354-1.36-.402-.331-.605-.71-.446-1.267.137-.486.138-1.01-.075-1.477-.195-.43-.22-.861-.19-1.312.015-.214.01-.43.036-.643.067-.563-.142-1.027-.528-1.404-.278-.273-.433-.601-.59-.945a16.876 16.876 0 0 0-.775-1.526c-.255-.44-.445-.86-.413-1.403.058-1.006-.356-1.887-.942-2.68-.127-.172-.353-.296-.559-.382-.407-.17-.84-.284-1.251-.45-.577-.231-1.185-.234-1.786-.27-.171-.012-.348.065-.52.109-.778.194-1.55.4-2.33.583-.552.128-1.121.197-1.669.347-.58.16-1.151.37-1.715.584-1.102.42-2.21.827-3.29 1.299-1.193.52-2.36 1.101-3.532 1.667-.37.18-.739.367-1.076.6-.628.433-1.229.91-1.85 1.353-.523.373-1.04.76-1.595 1.079-.929.533-1.905.98-2.728 1.689-.525.453-1.072.882-1.605 1.327-.15.125-.281.273-.43.401-.146.127-.286.272-.454.356-.617.312-1.108.763-1.562 1.277-.444.502-.92.973-1.387 1.454-.062.062-.154.093-.222.151-.149.127-.332.237-.428.399-.302.507-.8.755-1.285 1.013-.136.072-.337.048-.504.032-.388-.04-.777-.169-1.159-.147-1.159.065-2.308-.02-3.462-.079-1.032-.053-2.071.02-3.107.06-.642.023-1.29.04-1.92.143-.574.093-1.13.299-1.768.476 0-.176-.008-.347.002-.515.024-.41-.094-.759-.337-1.1a14.7 14.7 0 0 0-4.293-4.038c-1.222-.756-2.536-1.314-3.87-1.828-.233-.09-.477-.147-.713-.226-.439-.147-.88-.282-1.311-.448-1.43-.554-2.84-1.17-4.29-1.664-1.155-.391-2.277-.828-3.32-1.463-.183-.112-.377-.205-.57-.299-.929-.451-1.886-.85-2.779-1.363a11.226 11.226 0 0 0-2.4-1.03c-1.114-.335-2.2-.746-3.15-1.443-.64-.47-1.36-.79-2.097-1.054-1.158-.415-2.335-.772-3.5-1.166-1.127-.381-2.16-.12-2.996.633-.512.462-.994 1.033-1.24 1.728-.16.45-.277.92-.468 1.358-.309.713-.423 1.47-.566 2.221-.148.776-.373 1.528-.778 2.21-.273.46-.584.897-.843 1.362-.408.732-.786 1.48-1.18 2.219-.393.74-.824 1.464-1.175 2.224-.35.757-.821 1.471-.901 2.337a1.772 1.772 0 0 1-.124.52c-.257.607-.326 1.238-.295 1.888.04.805.066 1.61.11 2.414.02.356.123.714.097 1.065-.092 1.248.16 2.454.406 3.657.178.872.458 1.721.668 2.587.234.968.473 1.937.648 2.917.16.893.267 1.799.345 2.703.092 1.05.121 2.105.187 3.156.047.748.122 1.494.158 2.243.014.3-.05.603-.064.906-.028.613.15 1.199.245 1.798.141.878.237 1.756.562 2.6.287.747.493 1.526.737 2.29.103.323.182.658.322.964.26.566.559 1.115.837 1.672.2.396.417.785.584 1.196.215.526.576.84 1.131.954.244.05.483.134.716.225.66.26 1.35.338 2.048.361 1.283.042 2.515-.213 3.72-.644.298-.107.625-.187.939-.19a4.223 4.223 0 0 0 1.712-.383c.34-.151.666-.364 1.023-.449a46.52 46.52 0 0 1 2.83-.578c.911-.16 1.837-.243 2.748-.415.734-.139 1.454-.355 2.178-.545.569-.148 1.14-.294 1.7-.473a53.952 53.952 0 0 0 2.017-.697c.969-.347 1.857-.9 2.887-1.103 1.202-.239 2.28-.81 3.36-1.363 1.11-.569 2.225-1.129 3.005-2.158.031-.041.086-.063.126-.098.74-.643 1.483-1.282 2.217-1.93.723-.637 1.214-1.505 2.021-2.061.056-.039.087-.113.126-.173l1.34-2.133c.046.029.119.076.19.125 1.28.872 2.69 1.101 4.192.831 1.142-.206 2.281-.43 3.453-.319.174.016.354-.017.53-.046.79-.129 1.579-.266 2.37-.397.193-.031.391-.071.52.152.388.677.84 1.325 1.158 2.033.409.91.95 1.71 1.596 2.453a12.68 12.68 0 0 0 1.622 1.542c.886.714 1.714 1.498 2.56 2.26 1.097.987 2.329 1.771 3.621 2.472.817.442 1.61.927 2.43 1.361.757.4 1.514.81 2.308 1.118 1.048.403 2.132.712 3.203 1.06.713.232 1.405.472 1.982 1.008.36.333.826.565 1.275.784 1.138.555 2.355.828 3.618.897.418.022.804.1 1.154.362.18.135.418.196.63.288.113.05.253.067.337.146.273.257.597.356.954.436.71.16 1.835-.196 2.276-.778.343-.455.695-.908.998-1.39.408-.647.868-1.269 1.089-2.02.16-.547.297-1.106.507-1.635.49-1.227 1.062-2.425 1.362-3.723.012-.05.043-.098.063-.148.308-.778.596-1.564.928-2.33.282-.653.613-1.285.926-1.923.038-.078.105-.143.165-.21.651-.721 1.047-1.576 1.245-2.515.21-.995.364-2.003.55-3.004.244-1.309.252-2.622.092-3.94"/>
  <path fill="#161214" d="M141.791 37.718a2.227 2.227 0 0 0-.65-.352c-.605-.206-1.23-.152-1.852-.067-.583.079-1.167.15-1.753.202-.463.041-.927.047-1.34.312a.592.592 0 0 1-.355.07c-.439-.048-.89-.073-1.31-.19a11.68 11.68 0 0 0-2.114-.395c-.328.065-.679.075-.978.205-.497.218-.523.635-.087.944.14.101.315.176.485.21.856.176 1.71.39 2.574.487 1.187.136 2.382.176 3.574.263.3.022.6.06.901.1 1.056.14 1.894-.52 2.84-.78.059-.017.106-.093.15-.147.284-.35.275-.58-.085-.862"/>
  <path fill="#008bd0" d="M88.523 35.81c-.205.125-.406.252-.612.37-.742.425-1.474.864-2.229 1.262-.504.267-1.038.474-1.558.709-.226.103-.45.212-.677.314-.096.043-.196.092-.299.108-1.302.211-2.611.349-3.928.439-1.014.069-2.017.28-3.026.414-.566.076-1.134.173-1.7.174-1.19.003-2.345.256-3.513.41-.447.058-.748.336-1.006.656-.289.36-.09 1.027.365 1.3.449.271.946.338 1.45.248.752-.135 1.5-.298 2.25-.453 1.415-.292 2.836-.525 4.28-.624.394-.027.811-.086 1.148-.365.085-.07.225-.087.343-.098 1.011-.094 2.026-.161 3.035-.277.475-.054.94-.198 1.409-.306.833-.193 1.666-.387 2.499-.585.171-.04.365-.064.502-.16.18-.126.422-.303.448-.485.066-.449.384-.638.7-.817.543-.307 1.118-.557 1.668-.852.408-.218.826-.434 1.193-.712.497-.376 1.058-.592 1.63-.796.635-.227 1.27-.456 1.914-.663.567-.182 1.15-.24 1.78-.078v.633c-.661.045-1.01.604-1.505.935-.488.328-.939.71-1.418 1.05-.64.452-1.288.892-1.937 1.331-1.325.897-2.368 2.099-3.448 3.252-.865.923-1.812 1.718-2.925 2.316-.171.092-.332.205-.49.32-.595.432-1.304.534-1.987.731a15.18 15.18 0 0 1-3 .526c-.765.062-1.535.075-2.297.166-.47.057-.935.201-1.392.338-.66.2-1.315.422-1.963.656-.214.076-.491.17-.587.342-.214.382-.57.373-.9.459-.177.046-.42-.042-.47.242-.038.217.131.46.399.578.284.127.57.083.825-.061.166-.094.297-.092.444.005.48.317.99.238 1.502.109.12-.031.244-.108.357-.094.102.01.226.098.278.187.037.065.006.223-.054.282a8.82 8.82 0 0 1-.787.714 1.067 1.067 0 0 1-.48.222c-1.221.185-2.313.715-3.411 1.238-.612.292-1.222.597-1.855.838a8.086 8.086 0 0 1-1.596.44c-.801.129-1.532.47-2.303.68-.636.174-1.286.346-1.937.383-.485.026-.984-.16-1.216-.7-.33-.77-.7-1.524-.987-2.308-.447-1.224-.783-2.49-1.268-3.696-.452-1.12-.408-2.26-.425-3.42a6.718 6.718 0 0 1 .205-1.796c.035-.133.02-.287-.005-.426-.087-.493-.157-.992-.29-1.474-.287-1.036-.164-2.051.072-3.07.1-.436.195-.873.284-1.31.094-.464-.062-.9-.23-1.306-.366-.886-.257-1.786-.16-2.688.078-.727.196-1.45.282-2.177.063-.528-.09-1.03-.265-1.517a8.18 8.18 0 0 0-1.595-2.65c-.244-.276-.357-.526-.215-.91.178-.484.162-1.023.263-1.52.196-.984.155-2.045.767-2.925.099-.142.16-.332.173-.505.044-.557.313-1.012.602-1.465.455-.714.663-1.466.264-2.278-.15-.306-.113-.573.047-.864.575-1.046 1.15-2.092 1.688-3.157.192-.376.289-.804.406-1.214.108-.378.176-.768.281-1.146.038-.132.127-.252.21-.365.209-.288.431-.566.642-.853.19-.258.376-.52.555-.787.237-.356.479-.711.694-1.08.265-.452.415-.507.903-.351.593.189 1.196.35 1.797.518.85.237 1.664.56 2.376 1.085 1.098.812 2.358 1.252 3.64 1.653 1.286.404 2.484.969 3.568 1.789.744.562 1.555 1.034 2.449 1.316a36.1 36.1 0 0 1 3.806 1.415c1.19.528 2.438.918 3.643 1.412a166.97 166.97 0 0 1 4.477 1.926c.266.119.49.345.712.545.413.37.83.737 1.21 1.138.479.505.938 1.03 1.374 1.571.135.169.18.415.246.633.086.29.164.584.223.88.12.615.571 1.065.796 1.629.047.12.187.207.296.295.16.132.28.275.198.543l-.307-.176c-.404-.228-.804-.457-1.21-.68-.453-.25-.935-.457-1.36-.747-1.027-.7-2.176-1.06-3.374-1.291a16.6 16.6 0 0 0-2.865-.298c-.806-.015-1.608-.254-2.407-.418a13.906 13.906 0 0 1-2.443-.717c-.691-.28-1.405-.51-2.092-.8-.818-.344-1.306-.043-1.269.843.01.243.094.494.195.72.336.758.85 1.372 1.597 1.748.62.312 1.266.571 1.9.853.716.32 1.422.673 2.155.953.882.338 1.793.603 2.684.921.52.186 1.033.395 1.532.63.853.401 1.668.876 2.586 1.144.526.154 1.014.438 1.515.671.5.233 1.004.46 1.49.72.342.184.696.376.974.638.423.399.854.755 1.474.925l-.065.686c-.963-.063-1.9.28-2.88-.06.106-.13.196-.259.302-.372.2-.211.21-.45.088-.691-.24-.477-.56-.855-1.133-.962a25.924 25.924 0 0 1-1.771-.405c-.777-.2-1.544-.436-2.322-.631a29.529 29.529 0 0 0-1.985-.432c-1.094-.197-2.114-.633-3.162-.977-.791-.26-1.552-.622-2.348-.862-.664-.199-1.358-.294-2.043-.414-.189-.034-.392-.011-.585.01-.522.059-.796.466-.626.961.16.467.503.786.97.922.613.181 1.238.332 1.864.47.959.211 1.928.376 2.882.607.725.175 1.435.42 2.152.637.136.042.268.102.405.14 1.319.375 2.647.72 3.955 1.13.496.156.947.46 1.418.697l-.025.136c-.782.098-1.562.204-2.345.29-.566.062-1.133.124-1.701.137-.35.008-.701-.076-1.051-.123-.653-.085-1.312-.137-1.955-.265-.96-.19-1.908-.437-2.863-.652-.296-.066-.6-.097-.897-.162-.38-.084-.76-.18-1.136-.285-.773-.216-1.536-.471-2.317-.654a16.17 16.17 0 0 1-1.723-.528c-.868-.308-1.79-.465-2.69-.683-.416-.1-.833-.186-1.249-.286-1.201-.291-2.415-.492-3.654-.451a7.56 7.56 0 0 0-1.222.141c-.2.04-.397.161-.564.287-.293.22-.261.626.07.794.384.193.797.357 1.234.29 1.55-.236 3.053.106 4.568.341.81.125 1.628.213 2.427.384.499.106.99.299 1.453.516.775.365 1.52.794 2.29 1.172.858.423 1.729.82 2.593 1.23.045.02.078.065.205.175-.284.022-.483.05-.683.052-.965.008-1.93.038-2.893.002-.583-.021-1.164-.152-1.746-.228-1.199-.156-2.387-.401-3.608-.371-.758.02-1.517-.018-2.275-.037-.426-.01-.85-.045-1.272-.097a1.45 1.45 0 0 0-.53.039.465.465 0 0 0-.363.414c-.072.496.125.876.478 1.187.188.165.41.29.599.452.298.254.618.495.864.794.628.766 1.395 1.256 2.388 1.392.849.116 1.696.25 2.54.4 1.03.18 2.048.153 3.077-.04.43-.08.887-.052 1.329-.035.98.037 1.958-.05 2.942.07.869.106 1.692-.21 2.494-.515.433-.166.824-.232 1.286-.043.564.23 1.179.258 1.792.202.198-.018.4.007.601.012l.019.113M132.417 37.298c-.328.064-.679.075-.978.206-.497.217-.523.634-.087.944.14.1.315.175.485.21.856.176 1.709.388 2.575.486 1.185.135 2.381.176 3.573.262.3.023.602.06.901.1 1.056.142 1.893-.52 2.84-.78.059-.016.106-.091.15-.147.284-.35.275-.58-.085-.86a2.229 2.229 0 0 0-.65-.354c-.605-.206-1.23-.151-1.852-.066-.583.08-1.167.15-1.753.202-.463.041-.926.047-1.34.312a.585.585 0 0 1-.355.07c-.439-.049-.89-.073-1.31-.19a11.601 11.601 0 0 0-2.114-.395m-11.63 9.415c.286.127.578.245.858.384.594.296 1.198.545 1.875.58.13.006.27.084.383.164.364.256.714.53 1.074.794.273.2.58.262.915.208.352-.058.508-.33.294-.609-.14-.185-.382-.295-.588-.425-.053-.033-.143-.024-.212-.01-.746.157-1.238-.28-1.641-.785-.528-.662-1.253-.942-2.006-1.153-.722-.202-1.454-.36-2.12-.72-.108-.058-.235-.085-.355-.113-.667-.16-1.297-.412-1.852-.815-.212-.152-.437-.35-.538-.579-.412-.923-1.124-1.611-1.802-2.311a9.333 9.333 0 0 1-1.2-1.494c-.296-.466-.598-.928-.893-1.394-.027-.043-.03-.1-.056-.2.135 0 .251-.016.362.003.738.12 1.476.245 2.213.375.808.142 1.615.287 2.421.437.173.033.339.1.508.145 1.775.477 3.546.966 5.327 1.416.424.106.884.075 1.328.106.143.01.297-.016.425.03.993.351 2.029.43 3.064.43.945 0 1.884.211 2.83.072.228-.035.457-.076.678-.139a.5.5 0 0 0 .384-.52c-.003-.257-.135-.451-.385-.522-.203-.057-.42-.108-.629-.098-.524.026-1.018-.054-1.527-.194-.544-.15-1.125-.193-1.691-.228-1.142-.07-2.288-.084-3.428-.166a1.929 1.929 0 0 1-.943-.329c-.641-.46-1.377-.652-2.11-.86-.651-.185-1.313-.337-1.978-.602.203-.053.42-.076.607-.162.307-.141.598-.32.892-.487.944-.542 1.939-.823 3.015-.504 1.263.375 2.567.442 3.864.55.442.037.839-.164 1.11-.544.244-.344.223-.604-.078-.904-.111-.112-.24-.206-.317-.406.446.036.892.061 1.336.108 1.225.128 2.46.206 3.67.413 1.51.262 3.03.154 4.543.235.79.042 1.566-.064 2.285-.454.161-.088.374-.084.562-.119.262-.048.54-.053.781-.151.381-.155.4-.597.035-.795a1.747 1.747 0 0 0-.757-.224c-.803-.016-1.607.016-2.41.028-.39.005-.78.006-1.168.012-.464.007-.928.038-1.391.02-.89-.032-1.784-.156-2.67-.116-.849.039-1.615-.116-2.355-.503a1.064 1.064 0 0 0-.409-.113c-.79-.053-1.533-.253-2.269-.56-.516-.216-1.094-.3-1.652-.4-.772-.138-1.548-.28-2.33-.336-.598-.042-1.21.013-1.81.085-.553.065-1.082.101-1.645.005-.715-.123-1.454-.138-2.183-.141-.615-.002-1.199-.076-1.781-.289-.465-.17-.97-.232-1.449-.371-.422-.123-.836-.281-1.252-.427-.437-.155-.87-.317-1.306-.471-.168-.06-.352-.087-.506-.17-.506-.27-1.017-.307-1.548-.089-.064.027-.138.033-.276.064l-.103-.385c.367-.291.664-.533.968-.765a.752.752 0 0 1 .24-.113 30.443 30.443 0 0 1 3.279-.784c1.49-.278 2.974-.58 4.429-1.028.848-.262 1.742-.368 2.61-.568 1.283-.297 2.597-.458 3.837-.957 1.243-.5 2.554-.565 3.891-.594 1.363-.029 2.752.04 4.094-.366.353-.107.742-.085 1.109-.152.242-.044.482-.122.709-.217.458-.193.906-.408 1.359-.612.268-.12.46-.307.41-.62-.048-.295-.259-.462-.551-.506-.246-.036-.516-.125-.739-.061-.578.168-1.134-.005-1.699-.023-.351-.01-.707-.034-1.055.006-.886.105-1.765.255-2.65.361-.281.034-.571-.02-.857-.018-1.248.008-2.496.041-3.744.027-.618-.007-1.235-.096-1.88-.15l.03-.526a3.7 3.7 0 0 1 1.674-.286 3.56 3.56 0 0 0 1.467-.225c.245-.092.517-.152.777-.155a5.085 5.085 0 0 0 1.981-.42 3.199 3.199 0 0 1 1.836-.213c1.13.19 2.266.17 3.403.191.427.007.859.039 1.282-.003.44-.044.88-.136 1.304-.259.403-.117.477-.55.658-.862.05-.085-.085-.336-.199-.446a1.566 1.566 0 0 0-1.175-.437c-1.034.046-2.066.125-3.1.186-.764.045-1.529.116-2.294.11a10.242 10.242 0 0 0-2.019.193c-1.094.21-2.182.224-3.281-.105-1.12-.336-2.268-.176-3.391.075a163.37 163.37 0 0 0-3.75.873c-1.441.356-2.883.753-4.14 1.56-.996.64-2.05 1.149-3.105 1.667-.462.228-.946.413-1.456.632-.13-.48-.273-.929-.274-1.415 0-.205.051-.345.226-.442.472-.264.724-.704 1.01-1.147.26-.403.668-.727 1.053-1.034.626-.498 1.302-.936 1.928-1.435.358-.287.652-.655.99-.969.234-.217.484-.422.745-.602.646-.445 1.303-.872 1.956-1.307.074-.05.142-.113.223-.147.825-.339 1.339-1.048 1.957-1.634.294-.278.616-.531.95-.76.278-.19.59-.328.889-.488 1.18-.63 2.353-1.273 3.54-1.886a106.69 106.69 0 0 1 3.355-1.665 7.931 7.931 0 0 1 2.107-.68c.857-.142 1.697-.397 2.544-.6 1.125-.273 2.243-.588 3.38-.794.543-.1 1.115.108 1.56.445.358.27.553.69.59 1.166.045.606.055 1.221.322 1.784.168.355.36.699.549 1.042.445.802.624 1.642.565 2.572-.045.705.095 1.423.148 2.135.036.517.078 1.028.3 1.512.373.811.681 1.661 1.517 2.144.08.048.14.161.172.256.322.987.654 1.974.7 3.022.023.535.035 1.078-.028 1.607a12.345 12.345 0 0 0-.016 2.618c.021.212.012.43-.01.643-.086.82.06 1.608.325 2.374.36 1.039.54 2.1.554 3.202.007.55.197 1.093.21 1.642.031 1.215.022 2.434-.014 3.648-.012.383-.16.764-.254 1.143-.13.52-.259 1.042-.407 1.557-.176.616-.345 1.234-.763 1.753-.903 1.126-1.41 2.473-2.036 3.752-.043.626-.436 1.12-.634 1.685-.219.62-.298 1.29-.497 1.918-.253.8-.55 1.587-.854 2.37-.309.799-.64 1.59-.978 2.376-.082.193-.227.36-.381.596-.502-.329-1.147-.275-1.565-.767-.066-.077-.245-.14-.33-.106-.32.125-.52-.06-.778-.189-.458-.228-.957-.378-1.447-.537-.559-.182-1.133-.32-1.687-.516-.17-.06-.318-.231-.436-.384-.553-.714-1.243-1.254-2.006-1.739-.598-.379-1.116-.888-1.662-1.347-.81-.68-1.745-1.106-2.757-1.37-.882-.23-1.768-.445-2.568-.91-.833-.48-1.606-1.04-2.264-1.78"/>
  <path fill="#fd0" d="M99.387 23.72c.537 0 1.019.02 1.498-.005.605-.03 1.208-.098 1.812-.148.867-.072 1.717-.328 2.602-.223.211.026.428.01.642-.006.23-.015.468-.108.688-.07.436.073.861.213 1.256.317.17.52.331 1.005.484 1.495.041.135.064.279.077.42.081.889.175 1.777.223 2.668.022.388 0 .795-.098 1.17-.184.71-.1 1.414-.057 2.125.037.588.044 1.177.092 1.762.036.425.096.85.187 1.265.134.606.144 1.207.016 1.808-.107.512-.52.837-.81 1.367-.24-.407-.41-.746-.628-1.053a3.02 3.02 0 0 0-.554-.558c-.118-.097-.281-.14-.432-.21.009-.095.005-.167.022-.232.173-.643.015-.969-.605-1.212-.591-.231-1.196-.194-1.784-.012-.4.124-.775.172-1.198.102-.696-.115-1.356-.033-1.815.627-.116.168-.338.26-.483.413-.337.359-.28.876.128 1.146.177.117.39.175.57.288.134.085.24.215.421.382-.378.091-.657.14-.924.228a2.41 2.41 0 0 0-.628.292c-.455.32-.478.854-.082 1.24.239.231.515.38.844.435.165.027.328.071.492.2-.074.025-.15.075-.223.07a3.845 3.845 0 0 1-.585-.067c-.842-.178-.89-.254-1.023-1.102-.208-1.322-.491-2.636-.64-3.964-.1-.897-.064-1.817.387-2.66.105-.197.152-.434.192-.659a11.63 11.63 0 0 0 .127-3.125c-.024-.248-.037-.503-.106-.74-.266-.93-.258-1.874-.18-2.823.024-.3.06-.6.095-.95"/>
  <path fill="#161214" d="M21.926 123.987c.143 0 .287-.014.428.002.803.091 1.567-.032 2.27-.432.416-.237.827-.49 1.206-.78.635-.487 1.31-.947 1.842-1.534.5-.55 1.094-.855 1.756-1.064.257-.082.398-.21.494-.425.072-.162.123-.335.178-.506.174-.522.415-1.034.496-1.57.082-.544.253-.983.672-1.335a.93.93 0 0 0 .32-.653c.093-1.032.078-2.053-.168-3.07a1.391 1.391 0 0 0-.424-.711c-.19-.181-.421-.385-.485-.62-.208-.762-.525-1.471-.855-2.182-.36-.776-.9-1.362-1.683-1.696-.948-.405-1.9-.8-2.865-1.165-1.036-.392-2.086-.743-3.225-.58a.411.411 0 0 1-.159-.01c-.425-.122-.866-.032-1.236.107-.975.367-1.938.78-2.813 1.367-.259.173-.555.297-.843.42-.574.244-1.146.494-1.734.696-.405.138-.52.421-.581.796-.065.402-.176.796-.265 1.193-.081.362-.16.725-.239 1.088-.124.575-.183 1.176-.394 1.718-.162.412-.165.8-.16 1.212.001.158-.007.315-.012.474-.007.26-.023.521-.021.782.003.249.079.51.026.744-.089.402.024.776.077 1.156.082.574.289 1.145.277 1.714-.012.613.292 1.033.58 1.492.064.105.143.207.186.32.114.311.342.472.643.59.93.361 1.797.842 2.632 1.39.34.224.705.425 1.084.57.961.365 1.923.785 2.995.502m-10.513-21.96c.42-.375.74-.682 1.083-.96.769-.625 1.614-1.097 2.6-1.296.903-.182 1.794-.43 2.7-.585 1-.172 2.01-.273 3.015-.403.195-.025.395-.024.586-.067.93-.207 1.83-.015 2.733.181.715.156 1.449.24 2.147.447.936.277 1.891.554 2.759.989 1.23.617 2.527 1.16 3.502 2.2.243.26.483.523.724.784.447.485.908.957 1.336 1.458.58.678 1.114 1.386 1.21 2.327.029.297.153.563.325.83.21.322.288.724.447 1.083.403.912.42 1.896.56 2.858.026.176.054.35.078.526.03.211.131.449.07.63-.142.417-.045.8.022 1.204.145.869.064 1.733-.102 2.594-.057.297-.09.604-.096.906-.014.71-.245 1.367-.482 2.015-.262.717-.624 1.395-.881 2.114-.25.698-.657 1.294-1.053 1.906-.316.488-.57 1.017-.851 1.528-.044.078-.083.162-.142.227-.432.469-.848.955-1.309 1.394-.5.475-.993.998-1.586 1.322-.504.275-.939.65-1.471.883-.928.407-1.912.503-2.887.68-1.462.264-2.943.309-4.417.368-.97.038-1.95-.14-2.925-.225-.105-.008-.21-.05-.315-.06-1.358-.126-2.507-.755-3.61-1.5-.691-.469-1.383-.94-2.073-1.414-.826-.566-1.603-1.187-2.245-1.964l-.497-.592-.11.041c0 .13-.016.262.003.389.149.966.312 1.93.457 2.897.091.605-.453 1.609-1.029 1.867-1.353.606-2.695.643-3.994-.151-.336-.205-.634-.47-.786-.851-.05-.127-.06-.272-.074-.41-.018-.175 0-.355-.035-.524-.233-1.166-.494-2.326-.706-3.496-.103-.577-.116-1.172-.174-1.757-.034-.337-.067-.674-.119-1.009-.174-1.094-.286-2.187-.15-3.3.038-.312-.042-.638-.047-.957-.004-.247.03-.493.035-.74.007-.38-.01-.76.01-1.14.028-.563.086-1.125.118-1.69.013-.245-.01-.49-.016-.736-.02-.861.003-1.712.33-2.532.095-.242.148-.538.105-.79-.085-.49.154-.911.198-1.368.037-.386.102-.782.052-1.16-.136-1.03-.135-2.06-.095-3.092.029-.745.02-1.492.072-2.235.028-.385.154-.762.226-1.145.052-.277.166-.573.114-.832-.105-.53.03-1.04.114-1.53.143-.832.127-1.665.192-2.497.034-.44.064-.883.063-1.323a7.657 7.657 0 0 0-.087-.995c-.102-.755-.225-1.506-.322-2.261-.035-.28-.009-.568-.027-.851-.023-.348-.07-.695-.095-1.043-.029-.42-.05-.843-.065-1.266-.012-.32-.02-.64-.013-.96.016-.709.043-1.418.064-2.128.006-.178 0-.356.005-.534.01-.497.056-.97.22-1.465.21-.629.212-1.327.302-1.996.017-.123-.017-.274.044-.367.206-.316.143-.655.132-.99-.032-.908-.083-1.813-.052-2.727.03-.919-.142-1.845-.227-2.768-.045-.481-.126-.952.214-1.39.111-.143.134-.4.111-.594-.032-.27.08-.441.233-.624.718-.852 1.664-1.122 2.728-1.075.48.022.96.097 1.39.336 1.013.566 1.542 1.424 1.53 2.6 0 .143.015.288.037.428.214 1.387.28 2.777.116 4.175a4.39 4.39 0 0 0-.018.998c.067.595-.098 1.129-.323 1.658-.14.328-.194.678-.277 1.021-.203.842.238 1.543.359 2.31.02.122.1.25.08.36-.098.503.103.938.263 1.387.048.134.127.297.087.412-.146.431.094.777.186 1.16.08.34.122.704.1 1.052-.101 1.67-.241 3.336-.347 5.005-.061.976-.087 1.954-.12 2.932-.006.195.031.39.037.586.004.174-.007.348-.015.52-.003.07-.051.157-.024.204.263.458.066.943.107 1.412.036.406.035.8.01 1.208-.022.355-.05.7-.114 1.05-.045.25.03.523.062.903M60.716 103.204c-.8-.016-1.516.043-2.166.377-.455.235-.885.519-1.313.802-.543.363-1.08.735-1.604 1.125-.38.281-.71.638-1.107.892-.944.606-1.557 1.435-1.827 2.52-.047.188-.047.388-.09.578-.3 1.292-.662 2.573-.882 3.878-.127.752-.23 1.554.118 2.308.05.108.036.245.052.37.192 1.423.472 2.806 1.414 3.972.591.732 1.274 1.257 2.203 1.497.684.175 1.372.37 1.983.773.337.222.735.359 1.12.498.363.133.74.225 1.115.325.24.064.48.143.725.16.689.046 1.385.112 2.03-.24.06-.032.139-.031.209-.044.953-.172 1.77-.656 2.546-1.195.772-.536 1.498-1.138 2.236-1.723a.546.546 0 0 0 .194-.341c.035-.479.032-.96.053-1.44.007-.16.025-.321.067-.476.155-.58.398-1.142.38-1.763-.002-.099.064-.203.107-.299.222-.483.462-.955.548-1.49.023-.137.176-.25.258-.38.16-.255.46-.455.31-.839-.04-.102.003-.242.027-.362.138-.683-.119-1.32-.232-1.972a.548.548 0 0 0-.154-.275c-.51-.487-.724-1.094-.73-1.784a1.436 1.436 0 0 0-.377-.978c-.444-.488-.889-.98-1.376-1.421-.241-.218-.578-.329-.872-.487-.14-.076-.284-.147-.422-.228-1.072-.626-1.943-1.547-3.078-2.09-.315-.15-.6-.294-.957-.252-.194.023-.391.004-.508.004m-10.486-2.17c.323-.188.571-.316.802-.469.519-.34 1.007-.732 1.548-1.03.623-.344 1.294-.6 1.935-.911.528-.256 1.04-.544 1.565-.806.138-.069.3-.12.453-.13 1.021-.059 2-.29 2.973-.606.428-.138.916-.125 1.376-.117.852.014 1.64.32 2.422.627.765.299 1.543.572 2.283.924.964.46 1.895.99 2.842 1.483.487.254.979.5 1.472.74 1.003.488 1.82 1.173 2.38 2.155.158.277.33.532.405.858.052.216.268.4.43.582.64.713 1.274 1.42 1.658 2.323.413.968.899 1.903 1.314 2.87.231.537.408 1.1.56 1.667.07.267.054.569.024.85-.05.451-.15.896-.218 1.345-.04.26-.117.53-.081.782.073.509-.042.992-.298 1.38-.44.668-.571 1.416-.707 2.161-.123.671-.268 1.315-.59 1.927-.188.356-.236.785-.367 1.172-.092.27-.187.547-.335.786-.429.696-.849 1.404-1.344 2.051-.353.458-.807.844-1.245 1.23-.818.72-1.79 1.21-2.73 1.744-.637.36-1.26.738-1.896 1.097a3.2 3.2 0 0 1-.631.285c-.887.273-1.773.548-2.67.783-.376.1-.776.13-1.166.15-.944.046-1.89.09-2.834.095a7.86 7.86 0 0 1-2.267-.309c-.716-.212-1.437-.411-2.144-.649-.827-.278-1.623-.625-2.35-1.127-.735-.507-1.494-.979-2.25-1.456-.19-.121-.408-.203-.67-.33-.014.176-.028.29-.032.404-.013.344.173.705-.094 1.03-.034.041-.008.138.004.207.243 1.278-.656 2.201-1.712 2.52-.7.21-1.404.199-2.117.042-.722-.157-1.241-.61-1.672-1.163-.14-.18-.2-.472-.191-.71.027-.716-.07-1.419-.13-2.127-.047-.544-.022-1.094-.11-1.642-.098-.595-.19-1.198-.208-1.8-.016-.654.09-1.311.081-1.967-.007-.582-.098-1.163-.146-1.745-.024-.283-.099-.585-.032-.848.205-.828.038-1.666.125-2.494a.959.959 0 0 0 .004-.213c-.07-.525-.185-1.05.008-1.577a.734.734 0 0 0 .015-.373c-.123-.617-.108-1.235-.065-1.854.015-.21.036-.417.055-.625.056-.604-.173-1.178-.172-1.78.001-.872-.015-1.728.184-2.595a7.406 7.406 0 0 0 .173-1.952c-.03-.67.03-1.358.162-2.015.16-.8.132-1.599.141-2.4.01-.635-.12-1.278-.066-1.906.132-1.488-.156-2.975.038-4.461.059-.455.06-.918.069-1.377a3.638 3.638 0 0 0-.057-.637 95.1 95.1 0 0 0-.339-2.047c-.038-.208-.09-.428-.196-.606-.13-.216-.148-.425-.139-.665.012-.298-.04-.597-.028-.895.014-.371.072-.741.095-1.112.018-.296-.01-.597.022-.89.07-.655.158-1.308.25-1.959.047-.332.14-.66.17-.993.053-.604.084-1.21.104-1.816.014-.389-.018-.779-.008-1.168.006-.28.05-.559.077-.839.006-.07.027-.148.004-.21-.456-1.24-.482-2.545-.57-3.836-.037-.563.068-1.136.1-1.704.02-.335-.011-.677.045-1.005.141-.806.644-1.328 1.394-1.622a3.921 3.921 0 0 1 1.832-.27c.787.078 1.538.227 2.181.763.387.323.587.699.658 1.177.143.976.29 1.951.439 2.927.005.034.045.085.035.097-.284.322-.057.717-.157 1.07-.13.468-.063.948-.012 1.431.093.903.031 1.806-.128 2.705-.056.319.019.663.055.994.015.156.124.311.114.463-.064 1.014.062 2.029-.117 3.047-.139.783-.24 1.571-.392 2.354-.086.442.012.922.046 1.385.102 1.4.233 2.798.453 4.187.078.49.07.995.108 1.492.054.686.08 1.36-.011 2.057-.056.424-.079.869-.137 1.304-.017.12.021.247.021.372 0 .64-.014 1.28-.008 1.919.004.57-.087 1.15.135 1.823M111.99 99.387c.473-.194.894-.377 1.322-.537.917-.346 1.829-.712 2.762-1.008.74-.232 1.44-.62 2.25-.62.817 0 1.635-.011 2.45-.061.887-.054 1.735.14 2.57.376a68.57 68.57 0 0 1 3.661 1.15c.465.16.888.447 1.323.687.311.171.637.33.908.552.493.404.964.836 1.419 1.282.546.534 1.066 1.095 1.597 1.644.05.05.117.093.146.153.248.493.567.941.847 1.412.594.995.94 2.098 1.216 3.218.182.742.347 1.49.477 2.242.105.614.154 1.24.212 1.862.074.789.142 1.578.19 2.368.028.451.011.905.013 1.358 0 .054-.027.117-.008.16.332.72.106 1.487.177 2.228.06.628-.078 1.278-.148 1.917-.132 1.214-.28 2.426-.42 3.64-.012.104-.011.21-.013.314-.005.442.004.878-.148 1.31-.117.331-.145.693-.218 1.04-.11.524-.382.924-.825 1.244-.49.354-1.043.5-1.605.634-1.06.252-2.025-.003-2.87-.652-.537-.412-.62-1.037-.512-1.668.072-.42.217-.829.322-1.244.025-.098.036-.201.034-.301-.004-.195-.045-.391-.029-.582.073-.889.16-1.775.24-2.663.054-.602.032-1.226.183-1.804.124-.48.163-.94.117-1.415-.077-.81-.2-1.617-.27-2.428-.036-.406.008-.82-.003-1.229a4.503 4.503 0 0 0-.077-.782c-.151-.732-.363-1.453-.26-2.217.019-.152-.063-.314-.069-.473-.015-.383-.272-.743-.109-1.147.029-.069-.007-.18-.046-.255-.342-.646-.428-1.351-.48-2.063-.026-.34-.149-.664-.403-.85-.494-.363-.885-.85-1.48-1.106-.444-.19-.788-.601-1.219-.839a8.63 8.63 0 0 0-3.88-1.06 4.106 4.106 0 0 1-1.756-.442c-.291-.152-.554-.182-.864-.05a5.195 5.195 0 0 1-.916.27c-.962.21-1.782.723-2.562 1.281-.398.286-.709.7-1.035 1.078-.44.507-.834 1.057-1.293 1.545-.275.293-.624.523-.965.741-.17.11-.265.206-.27.414-.008.338-.04.676-.069 1.014-.055.655-.137 1.308-.166 1.965-.018.44.039.885.059 1.327.014.32.028.64.03.96.002.478.037.935.164 1.41.125.46.318.946.189 1.464-.05.194.03.417.022.626-.02.534-.076 1.067-.085 1.6-.021 1.083-.021 2.164-.028 3.246-.004.548-.036 1.1.004 1.644.042.6.147 1.195.235 1.79.11.744-.134 1.264-.757 1.664-.77.493-1.597.595-2.496.54-.807-.047-1.542-.223-2.23-.643a1.833 1.833 0 0 1-.728-.833c-.044-.096-.09-.208-.083-.31.028-.382.091-.762.114-1.145.02-.328.048-.667-.01-.986-.188-1.028-.128-2.063-.184-3.095-.052-.93.033-1.849.137-2.768.093-.813.16-1.626.41-2.422a1.359 1.359 0 0 0-.133-1.12c-.247-.41-.363-.936-.41-1.425-.116-1.221-.167-2.449-.229-3.674-.012-.243.05-.49.07-.736.013-.155.016-.31.02-.466.001-.035-.014-.07-.014-.106.014-.925.029-1.85.046-2.774.014-.798.105-1.59-.005-2.396-.068-.498.108-1.026.063-1.532-.052-.571.11-1.128-.004-1.71-.094-.487-.102-1.018.092-1.52.054-.139.016-.316.014-.475-.006-.514-.014-1.027-.027-1.542-.004-.177 0-.36-.04-.531-.138-.567-.067-1.131-.033-1.702.02-.351-.055-.708-.073-1.064-.015-.284-.01-.57-.014-.854-.008-.48-.024-.958-.02-1.437.002-.567.018-1.133.033-1.699.023-.904.068-1.808.07-2.712.002-.46-.085-.918-.103-1.378-.036-.963-.018-1.925.133-2.878.02-.118.119-.222.15-.341.048-.186.1-.38.097-.57-.005-.532-.034-1.067-.059-1.599-.01-.248.012-.51-.058-.741-.175-.588-.23-1.176-.224-1.79.007-.703-.102-1.406-.136-2.11-.01-.208.062-.421.1-.63.047-.258.092-.517.151-.773.023-.098.08-.189.125-.28.057-.111.17-.22.17-.33 0-.665.502-.894.984-1.034a4.273 4.273 0 0 1 2.48.018c.915.282 1.524.882 1.865 1.761.153.395.28.8.402 1.206.046.151.091.327.059.473-.114.514.016.989.168 1.465.005.017.023.031.026.047.113.728.286 1.454.318 2.186.038.885-.071 1.776-.065 2.663.005.722-.171 1.405-.296 2.104-.07.394-.147.8.023 1.21.076.186.032.42.044.633.038.709.097 1.418.108 2.127.006.494-.068.989-.082 1.484-.01.332.037.667.034 1-.004.425-.036.85-.047 1.275-.013.512-.028 1.025-.022 1.537.005.513.045 1.026.051 1.54.01.825-.136 1.647.02 2.477.062.326-.028.676-.032 1.016-.007.652-.002 1.304-.002 2.035M182.463 121.201l.014.11c.732-.14 1.462-.283 2.195-.415.2-.037.355-.101.498-.268.383-.444.818-.845 1.193-1.295.457-.546.862-1.136 1.311-1.69.764-.945 1.457-1.934 1.72-3.14.117-.527.144-1.09.104-1.629-.05-.708-.184-1.415-.323-2.113-.093-.465-.13-.958-.456-1.35-.396-.478-.795-.956-1.18-1.444-.175-.221-.355-.45-.47-.705-.22-.484-.591-.8-1.027-1.055-.324-.19-.666-.346-.992-.531-.743-.422-1.477-.86-2.225-1.273-.374-.206-.77-.373-1.157-.554-.224-.104-.446-.247-.682-.287-.585-.099-1.177-.147-1.766-.217-.458-.057-.915-.124-1.374-.169-.208-.02-.446-.056-.628.02-.657.273-1.322.546-1.935.904-.594.347-1.128.796-1.69 1.2-.057.041-.125.068-.182.11-.21.157-.43.303-.623.481-.404.373-.79.766-1.188 1.144-.076.071-.183.11-.27.171-.056.04-.12.082-.15.139-.484.904-.976 1.805-1.435 2.722-.115.228-.136.51-.166.77-.052.443-.087.888-.108 1.334-.007.19.015.39.064.575.196.738.395 1.472.453 2.24.025.347.056.722.203 1.027.215.445.499.87.822 1.243.43.496.91.952 1.397 1.391.486.439.94.925 1.594 1.142.523.175 1.042.373 1.544.603a9.602 9.602 0 0 0 4.356.884l2.56-.075m7.149-20.552c.052-.269.086-.46.126-.65.24-1.125.838-1.706 1.961-1.877.8-.123 1.563.078 2.305.352.192.072.372.168.45.414.049.152.215.292.362.382.43.263.615.674.748 1.128.2.686.264 1.386.259 2.099-.001.173.087.345.106.52.125 1.093.235 2.188.366 3.28.032.28.124.552.176.83.13.684.175 1.365.097 2.067-.05.432.122.884.115 1.325-.006.456-.11.91-.166 1.366-.03.248-.09.501-.067.746.079.795-.2 1.55-.236 2.329a8.923 8.923 0 0 1-.074.843c-.039.278-.148.552-.15.829-.01.711.053 1.425.03 2.135-.025.69-.137 1.378-.178 2.068-.052.885-.195 1.771.02 2.657.114.467.148.956.3 1.407.15.44-.016.84-.041 1.256-.01.16-.148.314-.234.468-.035.06-.113.104-.126.167-.214.947-1.021 1.154-1.772 1.32-.783.172-1.597.184-2.335-.29a2.425 2.425 0 0 0-.726-.29c-.545-.133-.792-.6-1.093-.98-.17-.214-.186-.549-.282-.862-.137.06-.222.083-.293.13-.934.621-1.973.977-3.053 1.245-1.035.256-2.076.47-3.14.536-.778.048-1.562.054-2.344.043-.962-.013-1.931.002-2.883-.112-1.164-.139-2.314-.39-3.468-.607-1.089-.205-2.128-.569-3.161-.966-.781-.3-1.437-.793-2.14-1.211-.307-.184-.632-.346-.906-.57-.672-.547-1.347-1.096-1.963-1.702-.308-.303-.484-.738-.73-1.106a8.306 8.306 0 0 1-1.205-2.764c-.206-.88-.504-1.747-.625-2.639-.105-.764-.262-1.529-.212-2.321.035-.57-.127-1.149-.175-1.726-.022-.262.019-.53.033-.796.023-.371.082-.744.066-1.114-.045-1.04.234-1.997.6-2.956.353-.922.842-1.765 1.427-2.538.492-.649 1.097-1.218 1.694-1.778.778-.728 1.597-1.415 2.401-2.116.12-.104.257-.191.391-.277.35-.227.796-.308 1.036-.708.046-.078.18-.11.28-.147.745-.278 1.505-.522 2.234-.835.62-.267 1.206-.608 1.803-.924.443-.234.873-.454 1.412-.413.305.023.62-.16.933-.172.992-.042 1.987-.098 2.977-.054 1.157.054 2.288.253 3.36.766.845.406 1.743.706 2.628 1.022.662.238 1.239.608 1.81 1.006.391.273.818.495 1.272.765M136.042 83.433c.29-.181.502-.332.73-.451.8-.42 1.39-1.08 2.014-1.713.513-.518 1.122-.936 1.838-1.152.307-.092.498-.283.43-.576-.127-.549.114-.986.374-1.405.312-.501.446-.99.381-1.603-.078-.736-.34-1.41-.5-2.115a9.246 9.246 0 0 1-.205-1.424c-.024-.38.106-.74.383-1.023.037-.038.098-.067.108-.11.127-.563.558-.974.752-1.499.406-1.096 1.214-1.178 2.225-.963.207.045.398.166.606.197 1.03.156 1.738.782 2.3 1.591.807 1.158 1.093 2.446.939 3.86-.085.78-.381 1.487-.618 2.212-.125.38-.087.732-.072 1.089.047 1.145-.223 2.19-.88 3.127-.138.199-.332.359-.521.56.423.28.906.395 1.382.522 1.14.303 2.291.57 3.361 1.078.624.296 1.233.62 1.693 1.183.243.296.58.54.919.726.777.427 1.264 1.127 1.826 1.77.5.571.851 1.231 1.217 1.88.43.758.868 1.523 1.181 2.334.233.604.292 1.282.394 1.932.14.892.264 1.789.355 2.688.032.308-.065.629-.087.944-.013.191-.025.391.017.574.11.473.045.935-.11 1.372a1.727 1.727 0 0 0-.127.603c0 .584-.111 1.169.05 1.748a.419.419 0 0 1-.006.266c-.279.575-.14 1.163-.102 1.758.045.684.007 1.372.009 2.059 0 .498.018.995.014 1.493-.01.903-.029 1.806-.048 2.71-.012.604.014 1.213-.056 1.81-.113.943.083 1.86.14 2.788.068 1.1.063 2.193-.09 3.285-.078.566-.11 1.137-.191 1.701-.13.897-.366 1.786-.405 2.684-.044 1.026-.195 2.05-.06 3.087.068.524.038 1.07-.195 1.573-.044.096-.066.203-.09.308-.014.069.015.177-.023.207-.355.28-.47.81-.95.946-.546.156-1.093.324-1.65.41-.623.099-1.232-.116-1.714-.468a7.761 7.761 0 0 1-.77-.66c-.12-.114-.247-.291-.255-.446a22.014 22.014 0 0 1-.02-1.75c.009-.48.032-.948-.04-1.432-.09-.612-.075-1.245-.054-1.868a7.822 7.822 0 0 0-.143-1.905c-.086-.409-.037-.853 0-1.278.106-1.223.276-2.439.228-3.674-.018-.472.097-.95.137-1.424.021-.248.043-.503.008-.746a13.318 13.318 0 0 1-.133-2.281c.03-.958-.065-1.92-.107-2.881-.004-.105-.048-.22-.018-.313.256-.808.215-1.65.28-2.479.04-.508.163-1.012.174-1.52.01-.512-.083-1.026-.109-1.541-.02-.386.001-.773-.006-1.16-.002-.138-.04-.277-.046-.416-.017-.371-.03-.741-.036-1.112a9.612 9.612 0 0 1 .02-.877c.043-.562.167-1.125.145-1.683-.036-.964.306-1.905.14-2.867-.13-.757-.331-1.494-.745-2.158-.14-.223-.234-.476-.33-.723-.26-.66-.74-1.166-1.172-1.706-.123-.151-.222-.327-.36-.462-.2-.197-.403-.413-.646-.536-.57-.287-1.165-.52-1.748-.782a8.47 8.47 0 0 0-2.404-.675c-.389-.05-.785-.077-1.16-.178-.762-.205-1.407.05-2.035.428-.29.174-.585.342-.878.511-.123.072-.263.121-.366.212-.765.676-1.733.97-2.617 1.424-.613.317-1.219.647-1.835.959-.326.164-.297.445-.29.733.02.833.036 1.667.053 2.5.018.854-.5 1.35-1.183 1.701-1.15.592-2.335.557-3.516.084-.46-.185-.799-.535-1.088-.928a.726.726 0 0 1-.114-.351c-.077-.78-.178-1.56-.205-2.342-.028-.836.017-1.673.028-2.51.007-.493-.008-.988.02-1.48.02-.33.134-.654.143-.982.023-.868.013-1.738.014-2.606.002-.743.011-1.486 0-2.228-.006-.514-.06-1.022.013-1.543.052-.354-.103-.734-.129-1.106-.087-1.243-.183-2.487-.223-3.733-.019-.586-.056-1.163-.173-1.74a1.454 1.454 0 0 1 .018-.587c.064-.295.1-.578.035-.88-.03-.142.039-.31.082-.46.029-.101.153-.211.132-.285-.125-.406.224-.572.405-.799.2-.25.487-.408.828-.452.49-.065.975-.201 1.467-.232.839-.052 1.647.144 2.292.69.361.307.663.72.649 1.277-.019.722-.074 1.452.203 2.15a.63.63 0 0 1 .009.318c-.135.78.03 1.557.022 2.337-.003.373.208.69.206 1.083-.003.883.098 1.769.154 2.653.018.284.043.568.04.852-.003.636-.024 1.272-.03 1.908-.001.083.041.167.1.384"/>
  <path fill="#161214" d="M25.502 87.72c-.096.495.088.77.403 1 .404.292.79.612 1.199.897.186.13.409.21.619.304.536.24 1.075.473 1.613.71.506.222 1.002.468 1.518.662.533.2 1.07.216 1.594-.083.245-.14.531-.205.787-.33a2.03 2.03 0 0 0 .525-.342c.4-.388.7-.834.723-1.425.004-.133.097-.264.152-.396.054-.131.163-.266.156-.392-.044-.69-.027-1.396-.421-2.013-.347-.542-.652-1.116-1.046-1.619-.432-.548-.92-1.055-1.753-.885-.35.072-.703.007-1.02-.218-.334-.235-.7-.423-1.046-.641-.203-.128-.404-.155-.652-.15-.482.01-.822.308-1.213.495-.627.301-1.076.779-1.346 1.442-.185.458-.4.924-.702 1.309-.333.426-.292.845-.193 1.3.034.154.083.303.103.374m5.82 9.297c-1.065-.067-1.98-.143-2.896-.315-.649-.121-1.296-.224-1.92-.443-.467-.164-.931-.325-1.35-.615a14.238 14.238 0 0 0-1.478-.87c-1.242-.653-2.148-1.633-2.8-2.86-.106-.2-.145-.435-.216-.654-.428-1.322-.778-2.678-.804-4.062-.017-.89-.209-1.772-.101-2.662.082-.67.086-1.38.316-2 .364-.982.654-2.017 1.601-2.706.708-.514 1.291-1.201 1.93-1.813.05-.049.087-.12.146-.156.39-.241.767-.512 1.181-.705a7.04 7.04 0 0 1 1.339-.467c.865-.206 1.734-.442 2.614-.516.75-.063 1.518-.052 2.276.108.87.184 1.766.253 2.628.464 1.36.333 2.636.884 3.706 1.82.64.562 1.059 1.292 1.42 2.056.165.353.356.694.51 1.052.197.457.417.912.542 1.39.228.875.406 1.755.493 2.67.088.927.047 1.837.03 2.754-.001.103-.048.207-.081.308-.262.792-.516 1.587-.792 2.374a1.81 1.81 0 0 1-.301.507c-.476.598-.677 1.33-1.01 1.998-.381.76-.959 1.322-1.685 1.742-.092.055-.205.08-.281.149-.562.511-1.287.678-1.972.906-.548.182-1.132.26-1.705.36-.488.086-.981.138-1.34.186M87.77 99.725c.048-.566.484-.78.898-.935.894-.334 1.803-.64 2.724-.887.772-.207 1.572-.306 2.356-.471.381-.08.752-.206 1.13-.306.44-.119.853-.08 1.304.063.599.19 1.172.381 1.711.726.574.365 1.06.807 1.513 1.3.168.182.354.365.459.584.212.44.255.875.077 1.385-.278.796-.77 1.315-1.544 1.571-.886.293-1.786.332-2.681.03-.366-.125-.701-.095-1.024.112-.508.325-1.01.66-1.524.974a8.667 8.667 0 0 1-.936.51c-.478.218-.856.573-1.284.857-.482.318-.843.716-1.17 1.19-.431.627-.923 1.216-1.254 1.905-.375.78-.8 1.533-.781 2.46.011.67-.186 1.34-.203 2.013-.023.904.019 1.812.07 2.716.023.422.047.88.227 1.245.207.418.538.808.902 1.103.599.488 1.131 1.024 1.535 1.674.353.567.857.938 1.419 1.249.592.329 1.24.574 1.78.972.726.536 1.495.596 2.332.487.316-.041.64-.06.959-.056 1.15.015 2.058.613 2.975 1.22.61.404.888 1.01 1.14 1.629.097.238.072.587-.029.832-.147.353-.36.715-.638.972-.99.916-2.185 1.365-3.532 1.206-.625-.074-1.2.028-1.788.155-1.418.307-2.753.187-3.95-.72-.294-.223-.615-.42-.88-.676-.563-.543-1.258-.865-1.936-1.215-.866-.445-1.651-.973-2.222-1.795-.408-.587-1.006-.994-1.539-1.463-.504-.443-1.028-.903-1.392-1.456-.4-.608-.856-1.223-.96-1.989-.004-.035 0-.08-.02-.104-.304-.384-.33-.855-.424-1.308-.06-.295-.175-.578-.235-.872-.101-.517-.181-1.037-.263-1.558-.077-.49-.137-.982-.22-1.471-.12-.709-.327-1.41-.36-2.123-.033-.698-.043-1.414.263-2.1.19-.428.252-.916.36-1.381.15-.633.283-1.269.435-1.901.032-.136.121-.257.18-.388.1-.226.238-.445.284-.682.159-.819.7-1.338 1.355-1.751.254-.16.44-.319.54-.606.187-.542.659-.832 1.1-1.124.663-.439 1.357-.833 2.038-1.248.059-.037.137-.083.156-.14.093-.28.325-.358.567-.414M69.576 81.26c-.61-.154-1.166.12-1.73.33a10 10 0 0 0-.835.353c-.39.188-.801.423-.952.822-.28.742-.631 1.472-.654 2.298-.006.257-.147.51-.178.77-.043.344-.194.69-.006 1.043.123.234.226.478.323.725.098.247.14.522.27.75.413.717.977 1.295 1.64 1.796.64.485 1.282.573 1.972.184.602-.34 1.26-.481 1.92-.639.2-.047.434-.11.573-.248.404-.4.782-.83 1.138-1.271.112-.139.144-.352.182-.537.098-.486.18-.975.262-1.464a.81.81 0 0 0-.005-.258c-.113-.663-.23-1.325-.344-1.988-.027-.156-.026-.319-.068-.47-.114-.392-.247-.778-.364-1.169-.105-.348-.289-.59-.68-.64-.37-.05-.756-.084-1.095-.222-.444-.179-.874-.29-1.369-.166m-.12 14.659c-.644-.109-1.247-.187-1.837-.319-.677-.151-1.385-.264-2.004-.554-.793-.37-1.646-.6-2.413-.995-.876-.452-1.77-.915-2.482-1.64-.471-.48-.825-1.023-.96-1.68-.05-.233-.005-.496.04-.739.125-.679.065-1.314-.148-1.989-.193-.612-.168-1.299-.195-1.955-.025-.6.037-1.202.009-1.8-.019-.438-.027-.858.169-1.26.046-.096.066-.204.096-.307.157-.543.266-1.091.511-1.62.173-.373.32-.773.49-1.16.356-.818.898-1.43 1.718-1.807.285-.13.529-.358.78-.555.866-.679 1.805-1.222 2.88-1.48.623-.15 1.26-.239 1.893-.343.487-.08.976-.156 1.468-.21.599-.065 1.169.098 1.733.276.617.193 1.163.503 1.701.872.548.376 1.21.58 1.796.905 1.056.588 2.15 1.124 3.012 2.012.51.527.805 1.183 1.087 1.83.291.666.464 1.385.671 2.087.207.696.166 1.4.037 2.107-.04.22-.017.454-.018.683-.006.848.161 1.714-.118 2.536-.273.801-.532 1.607-1.09 2.298a53.969 53.969 0 0 0-1.43 1.833c-.769 1.042-1.91 1.381-3.005 1.806-.891.347-1.821.602-2.745.854-.546.15-1.115.216-1.645.314M176.72 75.977c.465-.159.856-.35 1.288-.428a4.422 4.422 0 0 1 1.949.099c.275.074.547.172.808.286.391.168.731.414 1.012.74.41.473.794.958.963 1.582.093.345.163.685.15 1.045-.013.319.008.64.027.959.024.42.06.84.096 1.26.014.168.018.34.063.501.203.722.205 1.467.258 2.206.038.536.03 1.074.058 1.61.014.302.06.604.092.905.05.452.113.902.146 1.355.027.375.177.706.27 1.075.475-.167.6-.546.716-.91.064-.203.056-.434.054-.651-.003-.244-.083-.452-.303-.606-.49-.34-.273-.835.132-1.039.73-.366 1.915-.071 2.176.988.166.676.144 1.36-.142 2.031-.364.854-1.028 1.3-1.878 1.538-.475.132-.943.179-1.444.098-.805-.131-1.26-.612-1.477-1.342a8.883 8.883 0 0 1-.371-2.19 4.015 4.015 0 0 0-.063-.654c-.109-.534-.084-1.074-.117-1.614-.033-.536-.112-1.07-.155-1.608-.043-.537-.066-1.076-.097-1.615-.005-.083.008-.172-.013-.25-.193-.692-.183-1.392-.146-2.102a5.178 5.178 0 0 0-.11-1.257c-.068-.343-.279-.602-.682-.641-.422-.04-.86-.109-1.251.045-.354.14-.64.427-.899.72-.244.277-.49.555-.743.824-.14.15-.17.318-.159.512.019.32.023.64.036.96 0 .035.014.068.013.101-.063.942.021 1.887-.1 2.83-.045.342-.108.69-.052 1.052.035.222-.04.468-.09.696-.086.382-.35.6-.71.722-.53.182-.991.061-1.401-.306-.164-.146-.222-.302-.156-.538.072-.254.094-.53.086-.796-.018-.608.042-1.209.099-1.813.037-.4.022-.807 0-1.209-.098-1.75-.22-3.501-.305-5.253-.026-.556-.047-1.108-.127-1.66a4.286 4.286 0 0 1-.03-.907c.038-.538-.117-1.073-.012-1.613.033-.176-.017-.368-.02-.553-.002-.319-.017-.64.01-.957.03-.33.22-.533.554-.641.445-.145 1.121.056 1.47.546a.86.86 0 0 1 .166.622c-.075.51.028 1.01.052 1.511.042.875.156 1.748.233 2.621.031.352.048.705.076 1.113M165.22 72.677l-.852-.275a6.263 6.263 0 0 1-1.498-.72c-.438-.288-.928-.404-1.431-.433-.276-.016-.559.082-.836.142-.097.02-.183.089-.278.118-.511.164-.765.57-.986 1.016a1.79 1.79 0 0 0-.148 1.226c.05.228.035.47.051.707.036.524.608.943 1.116.811a.448.448 0 0 0 .173-.097c.317-.27.477-.61.38-1.03a3.757 3.757 0 0 0-.203-.623c-.092-.22-.036-.396.115-.554.157-.163.35-.281.574-.285.81-.014 1.3.214 1.635 1.007.284.67.24 1.367-.11 2.006a2.08 2.08 0 0 1-.998.898c-1.125.5-2.235.409-3.312-.14a2.212 2.212 0 0 1-.592-.466c-.475-.506-.906-1.045-1.034-1.76-.017-.099-.044-.199-.046-.298-.01-.54-.014-1.079-.024-1.618a1.084 1.084 0 0 1 .165-.627c.182-.284.23-.625.429-.91.357-.512.765-.92 1.384-1.11.485-.148.97-.284 1.473-.335 1.056-.104 2.037.14 2.943.695.343.212.68.429 1.056.589.38.161.773.248 1.173.288.996.1 1.98.004 2.958-.213.987-.219 1.939-.547 2.897-.857.746-.241 1.472.081 1.818.775.165.331.049.622-.07.921-.015.04-.068.076-.111.097-.213.1-.42.23-.645.284-1.045.25-2.075.572-3.14.741l-1.677.265c-.025.07-.071.159-.087.253-.042.232-.072.467-.102.701-.013.1-.02.201-.016.301.013.336.038.673.048 1.01.034 1.179.033 2.357.101 3.536.052.89.02 1.786.035 2.68.005.303.05.605.052.907.01.76-.053 1.516-.17 2.266-.09.577-.353.796-.943.87-.41.051-.768-.039-1.068-.333-.168-.166-.267-.374-.184-.595.137-.364.055-.735.087-1.101.024-.286.037-.573.038-.86 0-.217-.035-.434-.04-.651-.01-.472-.006-.945-.017-1.417-.019-.86-.046-1.719-.066-2.579-.004-.133.008-.269.012-.403.004-.1.036-.213.004-.301-.182-.491-.098-1.003-.132-1.504a15.457 15.457 0 0 1-.024-1.467c.01-.386.067-.77.101-1.155.011-.116.014-.233.023-.393M191.931 76.886c-.85.064-1.415.535-1.802 1.228-.392.702-.5 1.494-.607 2.278-.014.103.047.216.08.358.388-.252.737-.483 1.048-.766.272-.248.518-.531.81-.752.326-.246.522-.571.683-.922.227-.493.237-.974-.212-1.424m-1.584 5.51c.48.69 1.083 1.007 1.87.942.47-.038.853-.234 1.195-.58.364-.37.606-.801.83-1.253.054-.106.088-.22.14-.326a1.327 1.327 0 0 1 2.009-.474c.244.185.34.422.271.709-.05.21-.133.415-.222.613-.544 1.215-1.455 2.04-2.686 2.52-.314.12-.631.222-.964.29-1.52.313-2.826-.17-4-1.09-.69-.542-1.162-1.277-1.451-2.095-.17-.48-.276-.994-.231-1.533.051-.624.157-1.235.29-1.843.212-.953.68-1.762 1.448-2.369a3.518 3.518 0 0 1 1.605-.696c.216-.037.432-.08.65-.097.8-.064 1.48.247 2.093.725.502.393.843.921 1.083 1.502.283.688.212 1.367-.224 1.972-.677.937-1.5 1.718-2.526 2.278-.396.216-.75.51-1.18.805M10.119 143.814v-1.022c0-.556-.063-1.056-.19-1.5a3.266 3.266 0 0 0-.561-1.137 2.49 2.49 0 0 0-.907-.725 2.83 2.83 0 0 0-1.219-.251c-.443 0-.841.083-1.194.251-.352.168-.652.41-.9.725a3.344 3.344 0 0 0-.566 1.137 5.252 5.252 0 0 0-.198 1.5v1.022a5.3 5.3 0 0 0 .198 1.51c.13.446.32.827.57 1.144.249.317.552.56.906.727.355.168.754.253 1.196.253.461 0 .867-.085 1.22-.253.352-.168.652-.41.897-.727.244-.317.431-.698.557-1.145.128-.445.19-.949.19-1.509m.788-1.009v1.01c0 .66-.085 1.255-.255 1.786-.17.533-.415.989-.735 1.368-.321.38-.704.67-1.153.872-.447.203-.95.304-1.509.304a3.59 3.59 0 0 1-1.493-.304 3.24 3.24 0 0 1-1.157-.872 4.033 4.033 0 0 1-.75-1.368 5.672 5.672 0 0 1-.264-1.787v-1.009c0-.659.088-1.256.262-1.788.174-.531.422-.987.744-1.366a3.27 3.27 0 0 1 1.155-.873 3.567 3.567 0 0 1 1.491-.304c.559 0 1.062.101 1.51.304.446.203.832.493 1.154.873.323.379.57.835.742 1.366.172.532.258 1.13.258 1.788M28.725 138.603v9.414h-.8l-5.399-8.043v8.043h-.794v-9.414h.794l5.412 8.043v-8.043ZM45.37 148.016H40.5v-.68h4.87Zm-4.638 0h-.792v-9.413h.792ZM55.629 138.603l2.844 5.127 2.87-5.127h.917l-3.386 5.864v3.55h-.795v-3.55l-3.392-5.864ZM84.621 143.814v-1.022c0-.556-.063-1.056-.19-1.5a3.266 3.266 0 0 0-.561-1.137 2.489 2.489 0 0 0-.907-.725 2.83 2.83 0 0 0-1.219-.251c-.443 0-.84.083-1.194.251-.352.168-.652.41-.9.725a3.344 3.344 0 0 0-.566 1.137 5.252 5.252 0 0 0-.198 1.5v1.022a5.3 5.3 0 0 0 .198 1.51c.13.446.32.827.57 1.144.25.317.552.56.907.727.354.168.753.253 1.195.253.461 0 .867-.085 1.22-.253.352-.168.652-.41.897-.727s.431-.698.558-1.145c.127-.445.19-.949.19-1.509m.787-1.009v1.01c0 .66-.085 1.255-.255 1.786-.17.533-.414.989-.735 1.368-.321.38-.704.67-1.152.872-.448.203-.95.304-1.51.304a3.59 3.59 0 0 1-1.493-.304 3.24 3.24 0 0 1-1.157-.872 4.014 4.014 0 0 1-.748-1.368 5.643 5.643 0 0 1-.266-1.787v-1.009c0-.659.088-1.256.262-1.788.174-.531.423-.987.744-1.366a3.27 3.27 0 0 1 1.156-.873 3.567 3.567 0 0 1 1.49-.304c.559 0 1.063.101 1.51.304.446.203.832.493 1.154.873.323.379.57.835.742 1.366.172.532.258 1.13.258 1.788M102.014 148.017l-2.431-4.21.85-.006 2.426 4.131v.085Zm-5.799-9.414h3.052c.65 0 1.212.106 1.69.317.477.211.845.523 1.106.934.26.412.39.917.39 1.516a2.591 2.591 0 0 1-1.052 2.118c-.326.243-.705.41-1.135.5l-.278.104h-3.256l-.014-.678h2.73c.49 0 .899-.095 1.225-.285.326-.19.572-.44.74-.753.164-.313.247-.648.247-1.006 0-.426-.092-.796-.275-1.108a1.79 1.79 0 0 0-.81-.721c-.356-.168-.793-.252-1.308-.252h-2.258v8.728h-.794ZM114.415 148.016h-.795v-9.413h.795ZM132.556 143.542v3.35c-.108.159-.292.336-.555.53-.263.194-.616.363-1.058.508-.444.144-.994.215-1.652.215-.55 0-1.055-.099-1.515-.297a3.38 3.38 0 0 1-1.197-.863 3.944 3.944 0 0 1-.78-1.36 5.458 5.458 0 0 1-.274-1.785v-1.138c0-.646.084-1.229.25-1.75.17-.519.411-.963.73-1.334.317-.37.702-.654 1.151-.85.45-.196.954-.295 1.514-.295.696 0 1.283.122 1.76.362.477.243.85.573 1.12.994.268.42.435.894.499 1.425h-.794a2.912 2.912 0 0 0-.373-1.038 2.088 2.088 0 0 0-.823-.766c-.359-.194-.822-.291-1.39-.291-.455 0-.861.084-1.216.252a2.446 2.446 0 0 0-.893.718c-.242.31-.425.681-.549 1.115a5.195 5.195 0 0 0-.187 1.445v1.151c0 .551.07 1.049.21 1.493.14.445.34.826.603 1.145.263.319.577.563.942.733.365.17.772.256 1.219.256.478 0 .884-.045 1.22-.135.334-.092.604-.2.808-.328.205-.126.352-.246.443-.358v-2.425h-2.522v-.679ZM144.608 148.016h-.794v-9.413h.794ZM162.97 138.603v9.414h-.801l-5.398-8.043v8.043h-.794v-9.414h.794l5.412 8.043v-8.043ZM180.22 148.017l-3.257-8.851-.045-.563h.573l3.554 9.414Zm-.58-2.638h-4.986v-.686h4.985Zm-2.375-6.213-3.25 8.85h-.826l3.547-9.413h.576ZM196.684 148.016h-4.871v-.68h4.871Zm-4.638 0h-.793v-9.413h.793Z"/>
</svg>
